# xmcd
#
# Track frame offsets:
#	150
#	19359
#	40373
#	56837
#	73597
#	99495
#	118591
#	135557
#	153812
#	170818
#	187286
#	203906
#	222391
#	236738
#	254788
#	274050
#	292220
#	311579
#
# Disc length: 4402 seconds
#
# Revision: 3
# Processed by: cddbd v1.5.2PL0 Copyright (c) Steve Scherf et al.
# Submitted via: audiograbber 1.83.01
#
DISCID=28113012
DTITLE=Various Artist - SFG324
DYEAR=2013
DGENRE=Karaoke
TTITLE0=Pink f. Nate Ruess - Just give me a reason
TTITLE1=David Bowie - Where are we now
TTITLE2=Little Mix - Change your life
TTITLE3=JLS - Hold me now
TTITLE4=Justin Timberlake f. Jay Z - Suit and Tie (clean)
TTITLE5=50 Cent f. Eminem and Adam Levine - My Life (clean)
TTITLE6=Kesha - C'mon
TTITLE7=Alicia Keys - Brand new me
TTITLE8=Example - Perfect replacement (clean)
TTITLE9=Saturdays f. Sean Paul - What about us
TTITLE10=Conor Maynard f. Wiley - Animal
TTITLE11=Taylor Swift - 22
TTITLE12=Gabrielle Aplin - Please don't say you love me
TTITLE13=Devlin f. Diane Birch - Rewind
TTITLE14=One Republic - If I lose myself
TTITLE15=Destiny's Child - Nuclear (clean)
TTITLE16=Biffy Clyro - Black Chandelier
TTITLE17=Haim (BBC sound of 2013 winners) - Don't Save Me
EXTD=
EXTT0=
EXTT1=
EXTT2=
EXTT3=
EXTT4=
EXTT5=
EXTT6=
EXTT7=
EXTT8=
EXTT9=
EXTT10=
EXTT11=
EXTT12=
EXTT13=
EXTT14=
EXTT15=
EXTT16=
EXTT17=
PLAYORDER=
